Coordinates
version=1
nRows=5
nColumns=40
inDegrees=yes

Units are S.I. units (second, meters, Newtons, ...)
If the header above contains a line with 'inDegrees', this indicates whether rotational values are in degrees (yes) or radians (no).

endheader
time	pelvis_tilt	pelvis_list	pelvis_rotation	pelvis_tx	pelvis_ty	pelvis_tz	hip_flexion_r	hip_adduction_r	hip_rotation_r	knee_angle_r	knee_angle_r_beta	ankle_angle_r	subtalar_angle_r	mtp_angle_r	hip_flexion_l	hip_adduction_l	hip_rotation_l	knee_angle_l	knee_angle_l_beta	ankle_angle_l	subtalar_angle_l	mtp_angle_l	lumbar_extension	lumbar_bending	lumbar_rotation	arm_flex_r	arm_add_r	arm_rot_r	elbow_flex_r	pro_sup_r	wrist_flex_r	wrist_dev_r	arm_flex_l	arm_add_l	arm_rot_l	elbow_flex_l	pro_sup_l	wrist_flex_l	wrist_dev_l
      2.18500000	     15.12803045	     -2.54884920	      1.48316560	     -0.29626973	      1.04755363	     -1.07126743	     13.98265366	      2.29814147	      2.57149822	      1.37132812	      0.02393419	     -8.26197964	      0.00000000	      0.00000000	     -0.53696965	     -0.56675621	     -8.46197056	     30.76569819	      0.53696273	      4.41861048	      0.00000000	      0.00000000	    -21.22801592	     -1.31504328	     -0.70994314	     82.66901263	      0.89482289	     34.63617579	     32.64217090	     86.20158067	      0.00000000	      0.00000000	     89.68052824	     -7.99657017	     55.09916573	     36.08632845	     86.69640286	      0.00000000	      0.00000000
      2.19000000	     15.05526167	     -2.64674645	      1.50215705	     -0.29657807	      1.04680021	     -1.07119910	     14.13058178	      2.39100877	      2.52951768	      1.35378377	      0.02362798	     -8.36654451	      0.00000000	      0.00000000	     -0.25027191	     -0.70716936	     -8.38703075	     31.17089725	      0.54403479	      4.64354093	      0.00000000	      0.00000000	    -21.21964169	     -1.20680027	     -0.70934944	     82.74911201	      0.95007541	     34.61238906	     32.57145537	     86.05095594	      0.00000000	      0.00000000	     89.68656243	     -7.96554918	     54.87543389	     36.05632772	     86.79066181	      0.00000000	      0.00000000
      2.19500000	     14.97902321	     -2.70387502	      1.49965765	     -0.29717002	      1.04603350	     -1.07122255	     14.31181644	      2.43304458	      2.53808437	      1.37829508	      0.02405579	     -8.27007529	      0.00000000	      0.00000000	      0.06274737	     -0.81364521	     -8.42764041	     31.57008208	      0.55100188	      4.76146726	      0.00000000	      0.00000000	    -21.22936872	     -1.12527041	     -0.68079248	     82.93826100	      0.95388215	     34.83909110	     32.41946147	     86.14006836	      0.00000000	      0.00000000	     89.70067878	     -7.95137384	     54.69486371	     36.07322473	     86.69358798	      0.00000000	      0.00000000
      2.20000000	     14.90202422	     -2.65925884	      1.49755191	     -0.29773356	      1.04521922	     -1.07123405	     14.47148029	      2.36433254	      2.62359142	      1.37478026	      0.02399444	     -8.25347462	      0.00000000	      0.00000000	      0.36467697	     -0.80282234	     -8.43517836	     31.95313027	      0.55768733	      4.88895741	      0.00000000	      0.00000000	    -21.24988870	     -1.15690824	     -0.68196040	     83.10086630	      0.98181866	     34.93793375	     32.28715466	     86.15985831	      0.00000000	      0.00000000	     89.71002107	     -7.93633688	     54.46176925	     36.12542873	     86.70773886	      0.00000000	      0.00000000
      2.20500000	     14.85207189	     -2.70097627	      1.48960453	     -0.29813450	      1.04448184	     -1.07119009	     14.56748290	      2.39795453	      2.68205981	      1.33835788	      0.02335875	     -8.17633977	      0.00000000	      0.00000000	      0.60687659	     -0.90426060	     -8.51822302	     32.29385207	      0.56363405	      4.98666822	      0.00000000	      0.00000000	    -21.28861512	     -1.10210133	     -0.66565584	     83.24513968	      0.95897118	     35.20911306	     32.27416473	     86.01859721	      0.00000000	      0.00000000	     89.71668667	     -8.00301729	     54.36834170	     36.31723065	     86.58835601	      0.00000000	      0.00000000
